<?xml version="1.0" encoding="utf-8"?>
<!-- Generator: Adobe Illustrator 17.1.0, SVG Export Plug-In . SVG Version: 6.00 Build 0)  -->
<!DOCTYPE svg PUBLIC "-//W3C//DTD SVG 1.1//EN" "http://www.w3.org/Graphics/SVG/1.1/DTD/svg11.dtd">
<svg version="1.1" id="Layer_1" xmlns="http://www.w3.org/2000/svg" xmlns:xlink="http://www.w3.org/1999/xlink" x="0px" y="0px"
	 viewBox="400 90 120 120" enable-background="new 400 90 120 120" xml:space="preserve">
<g>
	<path fill="none" d="M443,92.9c4.5-1.3,9.3-2.2,14.1-2.4C452.2,90.7,447.5,91.5,443,92.9z"/>
	<path fill="none" d="M460.1,90.4C460.1,90.4,460.1,90.4,460.1,90.4C460.1,90.4,460.1,90.4,460.1,90.4L460.1,90.4z"/>
	<path fill="none" d="M460.1,90.4c4.2,0,8.3,0.5,12.3,1.3C468.4,90.8,464.3,90.4,460.1,90.4L460.1,90.4z"/>
	<path fill="none" d="M460.1,210.3C460.1,210.3,460.1,210.3,460.1,210.3c8.3,0,16.2-1.7,23.4-4.7c0,0,0,0,0,0
		C476.3,208.6,468.4,210.3,460.1,210.3z"/>
	<path fill="#7DD0DC" d="M472.4,91.7c0.9,0.2,1.7,0.4,2.6,0.6c-4.8-1.2-9.7-1.9-14.9-1.9h0C464.3,90.4,468.4,90.8,472.4,91.7z"/>
	<path fill="#7DD0DC" d="M460.1,90.4C460.1,90.4,460.1,90.4,460.1,90.4C460.1,90.4,460.1,90.4,460.1,90.4L460.1,90.4z"/>
	<path fill="#7DD0DC" d="M469,193.5c-2.9,0.6-5.9,0.9-9,0.9c-11.7,0-22.8-4.6-31.1-12.9c-2.7-2.7-5.1-5.7-6.9-9l-5,2.9l-8.8,5.1
		c3,5.2,6.8,9.9,11.1,13.9c1.1,1,2.2,2,3.4,2.9c1.2,0.9,2.4,1.8,3.6,2.7c0.6,0.4,1.2,0.8,1.9,1.2c1.3,0.8,2.6,1.5,3.9,2.3
		c0.7,0.4,1.3,0.7,2,1c7.9,3.8,16.7,5.9,26,5.9c0,0,0,0,0,0c-9.3,0-18.1-2.1-26-5.9c7.9,3.8,16.7,5.9,26,5.9
		c8.3,0,16.2-1.7,23.4-4.8C477.3,203.4,472.2,199.1,469,193.5z"/>
	<path fill="#7DD0DC" d="M432,203.4c-1.3-0.7-2.6-1.5-3.9-2.3C429.4,201.9,430.7,202.7,432,203.4z"/>
	<path fill="#7DD0DC" d="M422.7,197.3c-1.2-0.9-2.3-1.9-3.4-2.9C420.4,195.4,421.5,196.3,422.7,197.3z"/>
	<path fill="#7DD0DC" d="M426.3,199.9c-1.2-0.8-2.4-1.7-3.6-2.7C423.9,198.2,425.1,199.1,426.3,199.9z"/>
	<path fill="#C1F0F4" d="M422,172.5L422,172.5c-3.8-6.6-5.9-14.2-5.9-22.1c0-11.7,4.6-22.8,12.9-31.1c8.3-8.3,19.5-12.9,31.1-12.9
		v-16c-1,0-2,0-3,0.1c-4.8,0.2-9.6,1.1-14.1,2.4c-3.1,0.9-6,2.1-8.9,3.4c-10.9,5.3-20,13.7-26,24.2c-5,8.8-7.9,19-7.9,29.8
		c0,10.9,2.9,21.1,7.9,29.8c0,0.1,0.1,0.2,0.1,0.2l8.8-5L422,172.5C422,172.5,422,172.5,422,172.5z"/>
	<path fill="#C1F0F4" d="M434.1,96.3c2.8-1.4,5.8-2.5,8.9-3.4C439.9,93.8,436.9,94.9,434.1,96.3c-10.9,5.3-20,13.7-26,24.2
		C414.1,110,423.1,101.6,434.1,96.3z"/>
	<path fill="#C1F0F4" d="M460.1,90.4c-1,0-2,0-3,0.1C458.1,90.4,459.1,90.4,460.1,90.4L460.1,90.4z"/>
	<path fill="#C1F0F4" d="M400.1,150.3c0-10.8,2.9-21.1,7.9-29.8C403,129.3,400.1,139.5,400.1,150.3z"/>
	<path fill="#C1F0F4" d="M422,172.5l-5,2.9L422,172.5C422,172.5,422,172.5,422,172.5z"/>
	<path fill="#7DD0DC" d="M460.1,90.4C460.1,90.4,460.1,90.4,460.1,90.4L460.1,90.4C460.1,90.4,460.1,90.4,460.1,90.4z"/>
	<path fill="#7DD0DC" d="M518.9,162.4c0.8-3.9,1.2-7.9,1.2-12.1c0-6.2-1-12.2-2.7-17.8c-0.3-1-0.6-1.9-1-2.8c-0.5-1.4-1-2.7-1.7-4.1
		c-0.4-0.9-0.8-1.8-1.3-2.6c-0.7-1.3-1.4-2.6-2.1-3.8c-0.5-0.8-1-1.6-1.6-2.4c-1.1-1.6-2.2-3.2-3.4-4.6c-1.5-1.8-3.2-3.6-4.9-5.3
		c-0.4-0.3-0.7-0.6-1-1c-1.8-1.6-3.6-3.1-5.6-4.5c-2.8-2-5.7-3.7-8.7-5.2c-3.5-1.7-7.3-3-11.2-4c3.9,1,7.6,2.3,11.1,4
		c3.1,1.5,6,3.2,8.7,5.2c-2.7-2-5.6-3.7-8.7-5.2c-4.3-2.1-8.9-3.6-13.7-4.6c-4-0.8-8.1-1.3-12.3-1.3c0,0,0,0,0,0v16
		c11.6,0,22.8,4.6,31.1,12.9c8.3,8.3,12.9,19.4,12.9,31.1c0,2-0.1,4.1-0.4,6.1c5.9,2.8,10.6,7.7,13.1,13.7c0.5-1.6,1-3.2,1.4-4.8
		C518.4,164.4,518.7,163.4,518.9,162.4z M494.8,101.4c2,1.4,3.8,2.9,5.6,4.5C498.6,104.4,496.8,102.8,494.8,101.4z M506.4,112.2
		c-1.5-1.8-3.2-3.6-4.9-5.3C503.2,108.6,504.8,110.3,506.4,112.2c1.2,1.5,2.4,3,3.4,4.6C508.7,115.3,507.6,113.7,506.4,112.2z
		 M509.8,116.8c0.6,0.8,1.1,1.6,1.6,2.4C510.9,118.4,510.3,117.6,509.8,116.8z M513.5,123c0.4,0.9,0.9,1.7,1.3,2.6
		C514.3,124.8,513.9,123.9,513.5,123z M516.4,129.7c0.3,0.9,0.6,1.8,1,2.8C517.1,131.6,516.7,130.6,516.4,129.7z M518.8,162.4
		c-0.2,1-0.4,2-0.7,2.9C518.4,164.4,518.6,163.4,518.8,162.4z"/>
	<path fill="#7DD0DC" d="M514.8,125.7c-0.4-0.9-0.8-1.8-1.3-2.6C513.9,123.9,514.3,124.8,514.8,125.7z"/>
	<path fill="#7DD0DC" d="M511.4,119.3c-0.5-0.8-1-1.6-1.6-2.4C510.3,117.6,510.9,118.4,511.4,119.3z"/>
	<path fill="#7DD0DC" d="M509.8,116.9c-1-1.6-2.2-3.2-3.4-4.6C507.6,113.7,508.7,115.3,509.8,116.9z"/>
	<path fill="#7DD0DC" d="M518.1,165.3c0.3-1,0.5-1.9,0.7-2.9C518.6,163.4,518.4,164.4,518.1,165.3z"/>
	<path fill="#7DD0DC" d="M517.4,132.5c-0.3-1-0.6-1.9-1-2.8C516.7,130.6,517.1,131.6,517.4,132.5z"/>
	<path fill="#7DD0DC" d="M506.4,112.2c-1.5-1.9-3.2-3.6-4.9-5.3C503.2,108.6,504.8,110.4,506.4,112.2z"/>
	<path fill="#7DD0DC" d="M486.1,96.3c-3.5-1.7-7.2-3-11.1-4c-0.8-0.2-1.7-0.4-2.6-0.6C477.2,92.7,481.8,94.2,486.1,96.3z"/>
</g>
<path fill="#7DD0DC" d="M504.1,193.9h-18.6V190l6.7-6.8c2-2,3.3-3.4,3.9-4.2c0.6-0.8,1-1.5,1.3-2.2c0.3-0.7,0.4-1.4,0.4-2.1
	c0-1.1-0.3-1.9-0.9-2.4c-0.6-0.5-1.4-0.8-2.4-0.8c-1,0-2,0.2-3,0.7c-1,0.5-2,1.1-3,2l-3.1-3.6c1.3-1.1,2.4-1.9,3.3-2.4
	c0.9-0.5,1.8-0.8,2.8-1.1c1-0.2,2.2-0.4,3.4-0.4c1.7,0,3.1,0.3,4.4,0.9c1.3,0.6,2.3,1.5,3,2.5c0.7,1.1,1.1,2.3,1.1,3.8
	c0,1.2-0.2,2.4-0.6,3.4c-0.4,1.1-1.1,2.2-2,3.3c-0.9,1.1-2.5,2.7-4.8,4.8l-3.4,3.2v0.3h11.6V193.9z"/>
<g>
	<g>
		<path fill="#7DD0DC" d="M435.4,162.2l2.2,5.1c1.2,2.8,3.9,4.6,7,4.6h3c0.2,0.8,0.9,1.4,1.8,1.4h5.5c1.1,0,1.9-0.9,1.9-1.9v-2.2
			c0-1.1-0.9-1.9-1.9-1.9h-5.5c-0.9,0-1.6,0.6-1.8,1.4h-3c-1.7,0-3.2-1-3.9-2.6l-2.2-5.1c-0.4-1-0.3-2.1,0.3-3
			c0.1-0.2,0.2-0.3,0.4-0.4c0.9,2.9,2.4,4.8,4,4.7h0l7-0.6c0.6-0.1,1.1-0.3,1.5-0.8c0.4-0.5,0.6-1,0.5-1.6l-1.1-12.5
			c-0.1-1.2-1.2-2.1-2.4-2l-1.8,0.2c0.2-2.7,1.1-5.3,2.7-7.6c2.8-4,7.2-6.3,11.9-6.3c4.8,0,9.1,2.3,11.9,6.3c1.6,2.3,2.5,5,2.7,7.6
			l-1.8-0.2c-1.2-0.1-2.3,0.8-2.4,2l-1.1,12.5c-0.1,0.6,0.1,1.2,0.5,1.6c0.4,0.5,0.9,0.7,1.5,0.8l7,0.6h0c2.1,0.2,4.2-3.4,4.6-8.1
			c0.4-4.7-1-8.6-3.1-8.8l-0.1,0c-0.1-3.9-1.3-7.7-3.7-11c-3.7-5.3-9.7-8.4-16.1-8.4c-6.3,0-12.3,3.2-16.1,8.4
			c-2.3,3.3-3.6,7.1-3.7,11l-0.1,0c-2.1,0.2-3.5,4-3.1,8.6c-1,0.5-1.9,1.3-2.5,2.2C434.7,157.8,434.5,160.2,435.4,162.2z"/>
	</g>
</g>
</svg>
