<?xml version="1.0" encoding="utf-8"?>
<!-- Generator: Adobe Illustrator 17.1.0, SVG Export Plug-In . SVG Version: 6.00 Build 0)  -->
<!DOCTYPE svg PUBLIC "-//W3C//DTD SVG 1.1//EN" "http://www.w3.org/Graphics/SVG/1.1/DTD/svg11.dtd">
<svg version="1.1" id="Layer_1" xmlns="http://www.w3.org/2000/svg" xmlns:xlink="http://www.w3.org/1999/xlink" x="0px" y="0px"
	 viewBox="710 90 120 120" enable-background="new 710 90 120 120" xml:space="preserve">
<g>
	<path fill="none" d="M770.1,210.3C770.1,210.3,770.1,210.3,770.1,210.3c8.3,0,16.2-1.7,23.4-4.7c0,0,0,0,0,0
		C786.3,208.6,778.4,210.3,770.1,210.3z"/>
	<path fill="none" d="M753,92.9c4.5-1.3,9.3-2.2,14.1-2.4C762.2,90.7,757.5,91.5,753,92.9z"/>
	<path fill="none" d="M770.1,90.4C770.1,90.4,770.1,90.4,770.1,90.4C770.1,90.4,770.1,90.4,770.1,90.4L770.1,90.4z"/>
	<path fill="none" d="M770.1,90.4c4.2,0,8.3,0.5,12.3,1.3C778.4,90.8,774.3,90.4,770.1,90.4L770.1,90.4z"/>
	<path fill="#7DD0DC" d="M770.1,90.4C770.1,90.4,770.1,90.4,770.1,90.4C770.1,90.4,770.1,90.4,770.1,90.4L770.1,90.4z"/>
	<path fill="#7DD0DC" d="M782.4,91.7c0.9,0.2,1.7,0.4,2.6,0.6c-4.8-1.2-9.7-1.9-14.9-1.9h0C774.3,90.4,778.4,90.8,782.4,91.7z"/>
	<path fill="#7DD0DC" d="M779,193.5c-2.9,0.6-5.9,0.9-9,0.9c-11.7,0-22.8-4.6-31.1-12.9c-2.7-2.7-5.1-5.7-6.9-9l-5,2.9l-8.8,5.1
		c3,5.2,6.8,9.9,11.1,13.9c1.1,1,2.2,2,3.4,2.9c1.2,0.9,2.4,1.8,3.6,2.7c0.6,0.4,1.2,0.8,1.9,1.2c1.3,0.8,2.6,1.5,3.9,2.3
		c0.7,0.4,1.3,0.7,2,1c7.9,3.8,16.7,5.9,26,5.9c0,0,0,0,0,0c-9.3,0-18.1-2.1-26-5.9c7.9,3.8,16.7,5.9,26,5.9
		c8.3,0,16.2-1.7,23.4-4.8C787.3,203.4,782.2,199.1,779,193.5z"/>
	<path fill="#7DD0DC" d="M732.7,197.3c-1.2-0.9-2.3-1.9-3.4-2.9C730.4,195.4,731.5,196.3,732.7,197.3z"/>
	<path fill="#7DD0DC" d="M742,203.4c-1.3-0.7-2.6-1.5-3.9-2.3C739.4,201.9,740.7,202.7,742,203.4z"/>
	<path fill="#7DD0DC" d="M736.3,199.9c-1.2-0.8-2.4-1.7-3.6-2.7C733.9,198.2,735.1,199.1,736.3,199.9z"/>
	<path fill="#7DD0DC" d="M732,172.5L732,172.5c-3.8-6.6-5.9-14.2-5.9-22.1c0-11.7,4.6-22.8,12.9-31.1c8.3-8.3,19.5-12.9,31.1-12.9
		v-16c-1,0-2,0-3,0.1c-4.8,0.2-9.6,1.1-14.1,2.4c-3.1,0.9-6,2.1-8.9,3.4c-10.9,5.3-20,13.7-26,24.2c-5,8.8-7.9,19-7.9,29.8
		c0,10.9,2.9,21.1,7.9,29.8c0,0.1,0.1,0.2,0.1,0.2l8.8-5L732,172.5C732,172.5,732,172.5,732,172.5z"/>
	<path fill="#7DD0DC" d="M770.1,90.4c-1,0-2,0-3,0.1C768.1,90.4,769.1,90.4,770.1,90.4L770.1,90.4z"/>
	<path fill="#7DD0DC" d="M744.1,96.3c2.8-1.4,5.8-2.5,8.9-3.4C749.9,93.8,746.9,94.9,744.1,96.3c-10.9,5.3-20,13.7-26,24.2
		C724.1,110,733.1,101.6,744.1,96.3z"/>
	<path fill="#7DD0DC" d="M710.1,150.3c0-10.8,2.9-21.1,7.9-29.8C713,129.3,710.1,139.5,710.1,150.3z"/>
	<path fill="#7DD0DC" d="M732,172.5l-5,2.9L732,172.5C732,172.5,732,172.5,732,172.5z"/>
	<path fill="#7DD0DC" d="M770.1,90.4C770.1,90.4,770.1,90.4,770.1,90.4L770.1,90.4C770.1,90.4,770.1,90.4,770.1,90.4z"/>
	<path fill="#7DD0DC" d="M828.9,162.4c0.8-3.9,1.2-7.9,1.2-12.1c0-6.2-1-12.2-2.7-17.8c-0.3-1-0.6-1.9-1-2.8c-0.5-1.4-1-2.7-1.7-4.1
		c-0.4-0.9-0.8-1.8-1.3-2.6c-0.7-1.3-1.4-2.6-2.1-3.8c-0.5-0.8-1-1.6-1.6-2.4c-1.1-1.6-2.2-3.2-3.4-4.6c-1.5-1.8-3.2-3.6-4.9-5.3
		c-0.4-0.3-0.7-0.6-1-1c-1.8-1.6-3.6-3.1-5.6-4.5c-2.8-2-5.7-3.7-8.7-5.2c-3.5-1.7-7.3-3-11.2-4c3.9,1,7.6,2.3,11.1,4
		c3.1,1.5,6,3.2,8.7,5.2c-2.7-2-5.6-3.7-8.7-5.2c-4.3-2.1-8.9-3.6-13.7-4.6c-4-0.8-8.1-1.3-12.3-1.3c0,0,0,0,0,0v16
		c11.6,0,22.8,4.6,31.1,12.9c8.3,8.3,12.9,19.4,12.9,31.1c0,2-0.1,4.1-0.4,6.1c5.9,2.8,10.6,7.7,13.1,13.7c0.5-1.6,1-3.2,1.4-4.8
		C828.4,164.4,828.7,163.4,828.9,162.4z M804.8,101.4c2,1.4,3.8,2.9,5.6,4.5C808.6,104.4,806.8,102.8,804.8,101.4z M816.4,112.2
		c-1.5-1.8-3.2-3.6-4.9-5.3C813.2,108.6,814.8,110.3,816.4,112.2c1.2,1.5,2.4,3,3.4,4.6C818.7,115.3,817.6,113.7,816.4,112.2z
		 M819.8,116.8c0.6,0.8,1.1,1.6,1.6,2.4C820.9,118.4,820.3,117.6,819.8,116.8z M823.5,123c0.4,0.9,0.9,1.7,1.3,2.6
		C824.3,124.8,823.9,123.9,823.5,123z M826.4,129.7c0.3,0.9,0.6,1.8,1,2.8C827.1,131.6,826.7,130.6,826.4,129.7z M828.8,162.4
		c-0.2,1-0.4,2-0.7,2.9C828.4,164.4,828.6,163.4,828.8,162.4z"/>
	<path fill="#7DD0DC" d="M824.8,125.7c-0.4-0.9-0.8-1.8-1.3-2.6C823.9,123.9,824.3,124.8,824.8,125.7z"/>
	<path fill="#7DD0DC" d="M821.4,119.3c-0.5-0.8-1-1.6-1.6-2.4C820.3,117.6,820.9,118.4,821.4,119.3z"/>
	<path fill="#7DD0DC" d="M819.8,116.9c-1-1.6-2.2-3.2-3.4-4.6C817.6,113.7,818.7,115.3,819.8,116.9z"/>
	<path fill="#7DD0DC" d="M828.1,165.3c0.3-1,0.5-1.9,0.7-2.9C828.6,163.4,828.4,164.4,828.1,165.3z"/>
	<path fill="#7DD0DC" d="M827.4,132.5c-0.3-1-0.6-1.9-1-2.8C826.7,130.6,827.1,131.6,827.4,132.5z"/>
	<path fill="#7DD0DC" d="M816.4,112.2c-1.5-1.9-3.2-3.6-4.9-5.3C813.2,108.6,814.8,110.4,816.4,112.2z"/>
	<path fill="#7DD0DC" d="M796.1,96.3c-3.5-1.7-7.2-3-11.1-4c-0.8-0.2-1.7-0.4-2.6-0.6C787.2,92.7,791.8,94.2,796.1,96.3z"/>
</g>
<path fill="#7DD0DC" d="M816.6,173.1c0,1.7-0.5,3.1-1.5,4.2c-1,1.2-2.4,2-4.2,2.4v0.1c2.1,0.3,3.8,0.9,4.9,2c1.1,1,1.7,2.4,1.7,4.2
	c0,2.6-0.9,4.6-2.8,6c-1.9,1.4-4.5,2.1-8,2.1c-2.9,0-5.4-0.5-7.7-1.4v-4.8c1,0.5,2.2,0.9,3.4,1.3c1.2,0.3,2.5,0.5,3.7,0.5
	c1.9,0,3.2-0.3,4.1-0.9c0.9-0.6,1.3-1.6,1.3-3c0-1.3-0.5-2.1-1.5-2.7c-1-0.5-2.6-0.8-4.9-0.8h-2v-4.3h2.1c2.1,0,3.6-0.3,4.5-0.8
	c1-0.5,1.4-1.5,1.4-2.8c0-2-1.3-3-3.8-3c-0.9,0-1.8,0.1-2.7,0.4c-0.9,0.3-1.9,0.8-3,1.5l-2.6-3.9c2.4-1.7,5.3-2.6,8.7-2.6
	c2.8,0,4.9,0.6,6.5,1.7C815.8,169.5,816.6,171.1,816.6,173.1z"/>
<g>
	<path fill="#7DD0DC" d="M791.5,151.9c1.1-1.2,1.6-2.6,1.6-4.3c0-1.5-0.5-2.8-1.6-3.9c-1.1-1.1-2.4-1.6-3.9-1.6h-7.9
		c0.1-0.3,0.2-0.5,0.2-0.7c0.1-0.2,0.2-0.4,0.3-0.6c0.1-0.2,0.2-0.4,0.3-0.5c0.3-0.7,0.6-1.2,0.8-1.6c0.2-0.4,0.4-1,0.5-1.7
		c0.2-0.7,0.3-1.5,0.3-2.2c0-0.5,0-0.8,0-1.1c0-0.3-0.1-0.7-0.1-1.3c-0.1-0.6-0.2-1.1-0.3-1.4c-0.1-0.4-0.4-0.8-0.7-1.3
		c-0.3-0.5-0.7-0.9-1.1-1.2c-0.5-0.3-1-0.5-1.7-0.7c-0.7-0.2-1.5-0.3-2.4-0.3c-0.5,0-0.9,0.2-1.3,0.5c-0.4,0.4-0.7,0.9-1,1.4
		c-0.3,0.6-0.5,1.1-0.6,1.5c-0.1,0.4-0.2,1-0.4,1.8c-0.2,0.8-0.3,1.4-0.4,1.7c-0.1,0.4-0.3,0.8-0.5,1.4c-0.2,0.6-0.5,1-0.9,1.4
		c-0.6,0.6-1.6,1.8-2.9,3.4c-0.9,1.2-1.9,2.4-2.9,3.5c-1,1.1-1.7,1.7-2.2,1.7c-0.5,0-0.9,0.2-1.2,0.6c-0.3,0.4-0.5,0.8-0.5,1.2V166
		c0,0.5,0.2,0.9,0.5,1.3c0.4,0.4,0.8,0.5,1.3,0.6c0.7,0,2.2,0.4,4.5,1.3c1.5,0.5,2.6,0.9,3.5,1.1c0.8,0.3,2,0.5,3.5,0.8
		c1.5,0.3,2.9,0.4,4.1,0.4h3.7c2.5,0,4.4-0.8,5.7-2.2c1.1-1.3,1.6-3.1,1.4-5.2c0.7-0.7,1.3-1.6,1.5-2.7c0.3-1.2,0.3-2.3,0-3.4
		c0.9-1.2,1.3-2.5,1.2-3.9C791.9,153.5,791.8,152.8,791.5,151.9L791.5,151.9z M791.5,151.9"/>
	<path fill="#7DD0DC" d="M757.2,145.8H749c-0.5,0-0.9,0.2-1.3,0.5c-0.4,0.4-0.5,0.8-0.5,1.3V166c0,0.5,0.2,0.9,0.5,1.3
		c0.4,0.4,0.8,0.5,1.3,0.5h8.3c0.5,0,0.9-0.2,1.3-0.5c0.4-0.4,0.5-0.8,0.5-1.3v-18.4c0-0.5-0.2-0.9-0.5-1.3
		C758.2,146,757.7,145.8,757.2,145.8L757.2,145.8z M753.9,163.7c-0.4,0.4-0.8,0.5-1.3,0.5c-0.5,0-1-0.2-1.3-0.5
		c-0.4-0.4-0.5-0.8-0.5-1.3c0-0.5,0.2-0.9,0.5-1.3c0.4-0.4,0.8-0.5,1.3-0.5c0.5,0,0.9,0.2,1.3,0.5c0.4,0.4,0.5,0.8,0.5,1.3
		C754.5,162.9,754.3,163.3,753.9,163.7L753.9,163.7z M753.9,163.7"/>
</g>
</svg>
