<?xml version="1.0" encoding="utf-8"?>
<!-- Generator: Adobe Illustrator 17.1.0, SVG Export Plug-In . SVG Version: 6.00 Build 0)  -->
<!DOCTYPE svg PUBLIC "-//W3C//DTD SVG 1.1//EN" "http://www.w3.org/Graphics/SVG/1.1/DTD/svg11.dtd">
<svg version="1.1" id="Layer_1" xmlns="http://www.w3.org/2000/svg" xmlns:xlink="http://www.w3.org/1999/xlink" x="0px" y="0px"
	 viewBox="90 90 120 120" enable-background="new 90 90 120 120" xml:space="preserve">
<g>
	<path fill="none" d="M150.1,210.3C150.1,210.3,150.1,210.3,150.1,210.3c8.3,0,16.2-1.7,23.4-4.7c0,0,0,0,0,0
		C166.3,208.6,158.4,210.3,150.1,210.3z"/>
	<path fill="none" d="M133,92.9c4.5-1.3,9.3-2.2,14.1-2.4C142.2,90.7,137.5,91.5,133,92.9z"/>
	<path fill="none" d="M150.1,90.4c4.2,0,8.3,0.5,12.3,1.3C158.4,90.8,154.3,90.4,150.1,90.4L150.1,90.4z"/>
	<path fill="none" d="M150.1,90.4C150.1,90.4,150.1,90.4,150.1,90.4C150.1,90.4,150.1,90.4,150.1,90.4L150.1,90.4z"/>
	<path fill="#7DD0DC" d="M162.4,91.7c0.9,0.2,1.7,0.4,2.6,0.6c-4.8-1.2-9.7-1.9-14.9-1.9h0C154.3,90.4,158.4,90.8,162.4,91.7z"/>
	<path fill="#7DD0DC" d="M150.1,90.4C150.1,90.4,150.1,90.4,150.1,90.4C150.1,90.4,150.1,90.4,150.1,90.4L150.1,90.4z"/>
	<path fill="#C1F0F4" d="M159,193.5c-2.9,0.6-5.9,0.9-9,0.9c-11.7,0-22.8-4.6-31.1-12.9c-2.7-2.7-5.1-5.7-6.9-9l-5,2.9l-8.8,5.1
		c3,5.2,6.8,9.9,11.1,13.9c1.1,1,2.2,2,3.4,2.9c1.2,0.9,2.4,1.8,3.6,2.7c0.6,0.4,1.2,0.8,1.9,1.2c1.3,0.8,2.6,1.5,3.9,2.3
		c0.7,0.4,1.3,0.7,2,1c7.9,3.8,16.7,5.9,26,5.9c0,0,0,0,0,0c-9.3,0-18.1-2.1-26-5.9c7.9,3.8,16.7,5.9,26,5.9
		c8.3,0,16.2-1.7,23.4-4.8C167.3,203.4,162.2,199.1,159,193.5z"/>
	<path fill="#C1F0F4" d="M112.7,197.3c-1.2-0.9-2.3-1.9-3.4-2.9C110.4,195.4,111.5,196.3,112.7,197.3z"/>
	<path fill="#C1F0F4" d="M116.3,199.9c-1.2-0.8-2.4-1.7-3.6-2.7C113.9,198.2,115.1,199.1,116.3,199.9z"/>
	<path fill="#C1F0F4" d="M122,203.4c-1.3-0.7-2.6-1.5-3.9-2.3C119.4,201.9,120.7,202.7,122,203.4z"/>
	<path fill="#C1F0F4" d="M124.1,96.3c2.8-1.4,5.8-2.5,8.9-3.4C129.9,93.8,126.9,94.9,124.1,96.3c-10.9,5.3-20,13.7-26,24.2
		C104.1,110,113.1,101.6,124.1,96.3z"/>
	<path fill="#C1F0F4" d="M150.1,90.4c-1,0-2,0-3,0.1C148.1,90.4,149.1,90.4,150.1,90.4L150.1,90.4z"/>
	<path fill="#C1F0F4" d="M112,172.5L112,172.5c-3.8-6.6-5.9-14.2-5.9-22.1c0-11.7,4.6-22.8,12.9-31.1c8.3-8.3,19.5-12.9,31.1-12.9
		v-16c-1,0-2,0-3,0.1c-4.8,0.2-9.6,1.1-14.1,2.4c-3.1,0.9-6,2.1-8.9,3.4c-10.9,5.3-20,13.7-26,24.2c-5,8.8-7.9,19-7.9,29.8
		c0,10.9,2.9,21.1,7.9,29.8c0,0.1,0.1,0.2,0.1,0.2l8.8-5L112,172.5C112,172.5,112,172.5,112,172.5z"/>
	<path fill="#C1F0F4" d="M90.1,150.3c0-10.8,2.9-21.1,7.9-29.8C93,129.3,90.1,139.5,90.1,150.3z"/>
	<path fill="#C1F0F4" d="M112,172.5l-5,2.9L112,172.5C112,172.5,112,172.5,112,172.5z"/>
	<path fill="#7DD0DC" d="M208.9,162.4c0.8-3.9,1.2-7.9,1.2-12.1c0-6.2-1-12.2-2.7-17.8c-0.3-1-0.6-1.9-1-2.8c-0.5-1.4-1-2.7-1.7-4.1
		c-0.4-0.9-0.8-1.8-1.3-2.6c-0.7-1.3-1.4-2.6-2.1-3.8c-0.5-0.8-1-1.6-1.6-2.4c-1.1-1.6-2.2-3.2-3.4-4.6c-1.5-1.8-3.2-3.6-4.9-5.3
		c-0.4-0.3-0.7-0.6-1-1c-1.8-1.6-3.6-3.1-5.6-4.5c-2.8-2-5.7-3.7-8.7-5.2c-3.5-1.7-7.3-3-11.2-4c3.9,1,7.6,2.3,11.1,4
		c3.1,1.5,6,3.2,8.7,5.2c-2.7-2-5.6-3.7-8.7-5.2c-4.3-2.1-8.9-3.6-13.7-4.6c-4-0.8-8.1-1.3-12.3-1.3c0,0,0,0,0,0v16
		c11.6,0,22.8,4.6,31.1,12.9c8.3,8.3,12.9,19.4,12.9,31.1c0,2-0.1,4.1-0.4,6.1c5.9,2.8,10.6,7.7,13.1,13.7c0.5-1.6,1-3.2,1.4-4.8
		C208.4,164.4,208.7,163.4,208.9,162.4z M184.8,101.4c2,1.4,3.8,2.9,5.6,4.5C188.6,104.4,186.8,102.8,184.8,101.4z M196.4,112.2
		c-1.5-1.8-3.2-3.6-4.9-5.3C193.2,108.6,194.8,110.3,196.4,112.2c1.2,1.5,2.4,3,3.4,4.6C198.7,115.3,197.6,113.7,196.4,112.2z
		 M199.8,116.8c0.6,0.8,1.1,1.6,1.6,2.4C200.9,118.4,200.3,117.6,199.8,116.8z M203.5,123c0.4,0.9,0.9,1.7,1.3,2.6
		C204.3,124.8,203.9,123.9,203.5,123z M206.4,129.7c0.3,0.9,0.6,1.8,1,2.8C207.1,131.6,206.7,130.6,206.4,129.7z M208.8,162.4
		c-0.2,1-0.4,2-0.7,2.9C208.4,164.4,208.6,163.4,208.8,162.4z"/>
	<path fill="#7DD0DC" d="M150.1,90.4C150.1,90.4,150.1,90.4,150.1,90.4L150.1,90.4C150.1,90.4,150.1,90.4,150.1,90.4z"/>
	<path fill="#7DD0DC" d="M204.8,125.7c-0.4-0.9-0.8-1.8-1.3-2.6C203.9,123.9,204.3,124.8,204.8,125.7z"/>
	<path fill="#7DD0DC" d="M201.4,119.3c-0.5-0.8-1-1.6-1.6-2.4C200.3,117.6,200.9,118.4,201.4,119.3z"/>
	<path fill="#7DD0DC" d="M199.8,116.9c-1-1.6-2.2-3.2-3.4-4.6C197.6,113.7,198.7,115.3,199.8,116.9z"/>
	<path fill="#7DD0DC" d="M208.1,165.3c0.3-1,0.5-1.9,0.7-2.9C208.6,163.4,208.4,164.4,208.1,165.3z"/>
	<path fill="#7DD0DC" d="M207.4,132.5c-0.3-1-0.6-1.9-1-2.8C206.7,130.6,207.1,131.6,207.4,132.5z"/>
	<path fill="#7DD0DC" d="M196.4,112.2c-1.5-1.9-3.2-3.6-4.9-5.3C193.2,108.6,194.8,110.4,196.4,112.2z"/>
	<path fill="#7DD0DC" d="M176.1,96.3c-3.5-1.7-7.2-3-11.1-4c-0.8-0.2-1.7-0.4-2.6-0.6C167.2,92.7,171.8,94.2,176.1,96.3z"/>
</g>
<g>
	<g>
		<defs>
			<rect id="SVGID_1_" x="128.1" y="129.3" width="39.9" height="40.3"/>
		</defs>
		<clipPath id="SVGID_2_">
			<use xlink:href="#SVGID_1_"  overflow="visible"/>
		</clipPath>
		<path clip-path="url(#SVGID_2_)" fill="#7DD0DC" d="M128.1,129.3v39.9H168v-39.9H128.1z M163.3,163.3c0,1.2-1,2.2-2.2,2.2h-8.3
			c-1.2,0-2.2-1-2.2-2.2v-0.9c0-1.2,1-2.2,2.2-2.2h8.3c1.2,0,2.2,1,2.2,2.2V163.3z M163.4,154.1h-29.8v-6.7h29.8V154.1z
			 M163.4,142.1h-29.8v-6.7h29.8V142.1z M163.4,142.1"/>
	</g>
</g>
<path fill="#7DD0DC" d="M185.9,193.7h-5.6v-15.4l0.1-2.5l0.1-2.8c-0.9,0.9-1.6,1.5-1.9,1.8l-3.1,2.5l-2.7-3.4l8.6-6.8h4.6V193.7z"/>
</svg>
