<?xml version="1.0" encoding="utf-8"?>
<!-- Generator: Adobe Illustrator 17.1.0, SVG Export Plug-In . SVG Version: 6.00 Build 0)  -->
<!DOCTYPE svg PUBLIC "-//W3C//DTD SVG 1.1//EN" "http://www.w3.org/Graphics/SVG/1.1/DTD/svg11.dtd">
<svg version="1.1" id="Layer_1" xmlns="http://www.w3.org/2000/svg" xmlns:xlink="http://www.w3.org/1999/xlink" x="0px" y="0px"
	 viewBox="0 0 150 150" enable-background="new 0 0 150 150" xml:space="preserve">
<g>
	<path fill="#7DD0DC" d="M121.7,45.8l3.7-4.9c2-2.6,1.5-6.2-1.1-8.2l-9.6-7.3c-2.6-2-6.2-1.5-8.2,1.1l-3.7,4.9
		c6.1,3,11.6,7,16.4,11.8C120.1,44.1,120.9,45,121.7,45.8L121.7,45.8z M121.7,45.8"/>
	<g>
		<path fill="#7DD0DC" d="M75,24.9c2.6,0,5.1,0.2,7.7,0.5v-6.7h4.6c3.2,0,5.8-2.6,5.8-5.8V9.9c0-3.2-2.6-5.8-5.8-5.8H62.7
			c-3.2,0-5.8,2.6-5.8,5.8v2.9c0,3.2,2.6,5.8,5.8,5.8h4.6v6.7C69.9,25.1,72.4,24.9,75,24.9L75,24.9z M75,24.9"/>
		<path fill="#7DD0DC" d="M75,145.9c32.3,0,58.4-26.1,58.4-58.4c0-14.7-5.4-28-14.3-38.3c-5.2-6-11.6-10.9-18.9-14.4
			c-5.4-2.6-11.4-4.4-17.6-5.2c-2.5-0.3-5.1-0.5-7.7-0.5c-2.6,0-5.2,0.2-7.7,0.5c-28.6,3.8-50.7,28.3-50.7,57.9
			C16.6,119.8,42.7,145.9,75,145.9L75,145.9z M91.1,46.9c7.5,3,14,8,18.9,14.4c4.3,5.7,7.2,12.5,8.3,19.9c0.3,2.1,0.5,4.2,0.5,6.4
			h-44V43.8H75c2.1,0,4.2,0.1,6.2,0.4C84.6,44.7,87.9,45.6,91.1,46.9L91.1,46.9z M91.1,46.9"/>
	</g>
</g>
</svg>
