<?xml version="1.0" encoding="utf-8"?>
<!-- Generator: Adobe Illustrator 17.1.0, SVG Export Plug-In . SVG Version: 6.00 Build 0)  -->
<!DOCTYPE svg PUBLIC "-//W3C//DTD SVG 1.1//EN" "http://www.w3.org/Graphics/SVG/1.1/DTD/svg11.dtd">
<svg version="1.1" id="Layer_1" xmlns="http://www.w3.org/2000/svg" xmlns:xlink="http://www.w3.org/1999/xlink" x="0px" y="0px"
	 viewBox="0 0 150 150" enable-background="new 0 0 150 150" xml:space="preserve">
<g>
	<g>
		<path fill="#7DD0DC" d="M77.2,142.9c0.7-0.7,1.1-1.6,1.1-2.6C77.9,55.1,69,36,56.3,31.7v0.9H32.6v-1.2C20.3,35.1,11,53,10.6,140.2
			c0,1,0.4,1.9,1.1,2.6c0.7,0.7,1.6,1.1,2.7,1.1h60.1C75.5,144,76.4,143.6,77.2,142.9L77.2,142.9z M31.7,97.5
			c-4.3,0-7.8-10.1-7.8-22.4c0-12.4,3.5-22.5,7.8-22.5c4.3,0,7.8,10.1,7.8,22.5S36,97.5,31.7,97.5L31.7,97.5z M62.2,87
			c-0.7-12.8-2.5-25.1-5-37.2c-1.3-6.4,4.3-9.5,5.6-3c2.7,13,4.6,26.4,5.3,40C68.6,93.5,62.6,93.7,62.2,87L62.2,87z M62.2,87"/>
		<path fill="#7DD0DC" d="M48.2,8.5c-2-0.6-4.5-0.7-7.2,0c-1,0.3-2,0.6-3.1,1.2c-0.7,0.4-1.4,0.8-2.2,1.3c-0.3,0.2-0.6,0.4-0.9,0.6
			v18.7h18.9V11.5c-0.2-0.1-0.4-0.3-0.7-0.5c-0.5-0.4-1.2-0.8-2.1-1.3C50.3,9.2,49.4,8.8,48.2,8.5L48.2,8.5z M48.2,8.5"/>
	</g>
</g>
<g>
	<g>
		<path fill="#7DD0DC" d="M111.6,69.3H96.9c-15.5,6.6-27,32.9-27,53.7c0,23.9,15.4,22.6,34.4,22.6s34.4,1.3,34.4-22.6
			C138.6,102.2,127.1,75.9,111.6,69.3L111.6,69.3z M78.7,114.4c0.6-0.7,1.5-1.2,2.1-2c1.7-1.7,2.2-4.1,1.3-6.3c-0.8-1.8-2-3.3-0.4-5
			c0.4-0.4,0.8-0.7,1.2-1.1c0.9-0.8,1.8-1.8,2.3-3c0.7-1.7,0.8-3.4,0-4.9c1.7-2.9,3.7-5.5,6.1-7.4v49.1c0,0-8.9,0.7-12.1-7.2
			c0.5-1.6,1.4-3.2,1.4-5c0-1.9-1.2-3.7-1.9-5.4C78.5,115.7,78.3,114.9,78.7,114.4L78.7,114.4z M78.7,114.4"/>
	</g>
	<path fill="#7DD0DC" d="M137,44.3v-7.5c0-1.8-1.5-3.3-3.3-3.3h-4.1v14.1h4.1C135.5,47.6,137,46.1,137,44.3L137,44.3z M137,44.3"/>
	<path fill="#7DD0DC" d="M120,53.7c-1.1,1.1-2.1,2.6-2.9,4.4c-0.3,0.6-0.5,1.3-0.8,1.9c-0.1,0.3-0.1,0.5-0.1,0.5
		c1.6,0,6.5,1.8,9.7,8.7c3.2,6.9,10.2,5.4,5.7,1c-4.5-4.5-6.7-18.8-6.7-18.8C122.9,51.8,121.2,52.7,120,53.7L120,53.7z M120,53.7"/>
	<path fill="#7DD0DC" d="M103.3,33.5c-4.1,0-12.7,1.7-20.3,11.7c-0.7,0.9-0.2,2.2,0.9,2.4C87.8,48.6,95,52.1,95,66h16.6
		c0,0,1.6-18.2,14.6-18.2V33.5H103.3z M103.3,33.5"/>
</g>
</svg>
