<?xml version="1.0" encoding="utf-8"?>
<!-- Generator: Adobe Illustrator 17.1.0, SVG Export Plug-In . SVG Version: 6.00 Build 0)  -->
<!DOCTYPE svg PUBLIC "-//W3C//DTD SVG 1.1//EN" "http://www.w3.org/Graphics/SVG/1.1/DTD/svg11.dtd">
<svg version="1.1" id="Layer_1" xmlns="http://www.w3.org/2000/svg" xmlns:xlink="http://www.w3.org/1999/xlink" x="0px" y="0px"
	 viewBox="0 0 150 150" enable-background="new 0 0 150 150" xml:space="preserve">
<g>
	<path fill="#7DD0DC" d="M31.5,112.4c-2.5,0-4.8,0.6-6.9,1.6V82.8c0-2.2-0.2-2,1.9-2h7.4c2.1,0,23.1,1.8,28.6,30.5l3.6,23.7
		c0,2.2-1.7,4.9-3.8,4.9H44.4c2.2-2.9,3.5-6.5,3.5-10.5C47.8,120,40.5,112.4,31.5,112.4L31.5,112.4z M31.5,112.4"/>
	<path fill="#7DD0DC" d="M22.7,120c0.6-0.6,1.2-1.1,1.9-1.6c2-1.4,4.3-2.2,6.9-2.2c6.9,0,12.6,5.9,12.6,13.2c0,4.3-2,8.1-5,10.5
		c-1,0.8-2.2,1.5-3.5,2c-1.3,0.5-2.7,0.7-4.1,0.7c-1.4,0-2.8-0.3-4.1-0.7c-1.3-0.5-2.6-1.2-3.7-2.1c-1-0.8-1.9-1.8-2.7-3
		c-1.4-2.1-2.2-4.6-2.2-7.4c0-2.6,0.7-5,2-7C21.3,121.6,22,120.8,22.7,120L22.7,120z M31.5,122.9c-3.5,0-6.3,3-6.3,6.6
		c0,3.6,2.8,6.6,6.3,6.6c3.5,0,6.3-3,6.3-6.6C37.8,125.8,35,122.9,31.5,122.9L31.5,122.9z M31.5,122.9"/>
</g>
<g>
	<g>
		<path fill="#7DD0DC" d="M88.2,29.1c6.5,0,11.8-5.3,11.8-11.8c0-6.5-5.3-11.8-11.8-11.8c-6.5,0-11.8,5.3-11.8,11.8
			C76.5,23.8,81.8,29.1,88.2,29.1L88.2,29.1z M88.2,29.1"/>
		<path fill="#7DD0DC" d="M121.1,95.3l-16.2-13.9c0.4-0.7,0.8-1.5,1-2.4c3.7-16.8,8.9-38.4-7.3-44.7c-7.8-3.1-17.6-2.6-23.4,1.9
			c-4.5,3.7-6.7,5.4-12,9.3l-9.2-7.9c-0.3-1-0.7-2.1-1.1-3c-1-2.4-3.9-3.9-6.4-3.4l-3.7-3.2c-0.4-0.4-1.1-0.3-1.5,0.1L39.1,31
			c-0.4,0.4-0.3,1.1,0.1,1.5l3.2,2.8c-0.3,1.7-0.1,4.4,1.1,8.5c1.6,5.7,9.5,22.8,17.8,18.2c2.3-1.3,4.6-2.8,6.9-4.5l5.8,5
			c-0.1,19.2-0.4,59.9-1,75.6c-0.4,8.7,13.1,8.6,13.4,0c0.6-15.3,0.8-30.6,0.8-45.9c0.6,0,1.3,0,1.9,0c0,15.3,0.2,30.6,0.8,45.9
			c0.4,8.6,13.8,8.7,13.4,0c-0.4-10.4-0.6-32-0.7-50.9l14.7,12.7C115.4,102.9,124,92.8,121.1,95.3z"/>
	</g>
</g>
<path fill="#7DD0DC" d="M29.1,78.4h-5c0-3.9,0-7.8-0.1-11.5c-0.2-23.1-0.3-38.3,6.8-41.8c3.2-1.6,7.1-0.5,12,3.4l-3.1,3.9
	c-3-2.4-5.5-3.4-6.7-2.8c-4.4,2.1-4.2,20-4,37.3C29,70.7,29.1,74.5,29.1,78.4z"/>
<path fill="#7DD0DC" d="M134.9,88.7c1.6,1.5,1.7,4,0.2,5.7l-17.4,18.9c-1.5,1.6-4,1.7-5.7,0.2l0,0c-1.6-1.5-1.7-4-0.2-5.7l17.4-18.9
	C130.7,87.3,133.2,87.2,134.9,88.7L134.9,88.7z"/>
</svg>
