<?xml version="1.0" encoding="utf-8"?>
<!-- Generator: Adobe Illustrator 17.1.0, SVG Export Plug-In . SVG Version: 6.00 Build 0)  -->
<!DOCTYPE svg PUBLIC "-//W3C//DTD SVG 1.1//EN" "http://www.w3.org/Graphics/SVG/1.1/DTD/svg11.dtd">
<svg version="1.1" id="Layer_1" xmlns="http://www.w3.org/2000/svg" xmlns:xlink="http://www.w3.org/1999/xlink" x="0px" y="0px"
	 viewBox="0 0 300 300" enable-background="new 0 0 300 300" xml:space="preserve">
<g>
	<path fill="#83C6AA" d="M136.8,133.3H48c-3.6,0-6.7,2.4-7.7,5.8l-17,59l119.4,13.1l9.4-44.8C146.2,155.8,140.9,144.7,136.8,133.3
		L136.8,133.3z M136.8,133.3"/>
	<path fill="#83C6AA" d="M248.3,222.7l35.9,3.9l-10.7-37.1c-1.4,2.1-2.9,4.2-4.3,6.2C261.9,205.9,254.7,215,248.3,222.7L248.3,222.7
		z M248.3,222.7"/>
	<g>
		<path fill="#83C6AA" d="M170.5,195.3l-3.9,18.4l19.4,2.1c-4.9-6.1-10-12.8-15.2-20.1C170.7,195.6,170.6,195.5,170.5,195.3
			L170.5,195.3z M170.5,195.3"/>
		<path fill="#83C6AA" d="M0.3,277.6c-0.7,2.4-0.2,5,1.3,7c1.5,2,3.9,3.2,6.4,3.2h118.7l11.1-53.1L16.5,221.5L0.3,277.6z M0.3,277.6
			"/>
		<path fill="#83C6AA" d="M291.3,251.5l-129.6-14.2l-10.5,50.5h140c4.4,0,8-3.6,8-8c0-1-0.2-1.9-0.5-2.7L291.3,251.5z M291.3,251.5"
			/>
		<path fill="#83C6AA" d="M216.7,232.8c0.9,0.9,2.1,1.4,3.3,1.4c1.3,0,2.4-0.5,3.3-1.4c7.3-7.8,21.7-23.8,36.1-44.1
			c18.2-25.6,39.8-63.1,39.8-96.5c0-43.7-35.5-79.2-79.2-79.2c-43.7,0-79.2,35.5-79.2,79.2c0,33.4,21.7,71,39.9,96.6
			C195,209.1,209.4,225.1,216.7,232.8L216.7,232.8z M220,42.8c26.7,0,48.4,21.7,48.4,48.4c0,26.7-21.7,48.4-48.4,48.4
			c-26.7,0-48.4-21.7-48.4-48.4C171.6,64.5,193.3,42.8,220,42.8L220,42.8z M220,42.8"/>
	</g>
</g>
</svg>
